# xmcd
#
# Track frame offsets:
#	150
#	13698
#	26571
#	40119
#	62592
#	81015
#	98838
#	112386
#	127659
#	144807
#	159030
#	173628
#	188001
#	206499
#	226572
#	243945
#
# Disc length: 3470 seconds
#
# Revision: 1
# Processed by: cddbd v1.5.2PL0 Copyright (c) Steve Scherf et al.
# Submitted via: audiograbber 1.83.01
#
DISCID=b50d8c10
DTITLE=EMERSON DRIVE - DECADE OF DRIVE
DYEAR=2011
DGENRE=Country
TTITLE0=I SHOULD BE SLEEPING
TTITLE1=FALL INTO ME
TTITLE2=COUNTRIFIED SOUL
TTITLE3=MOMENTS
TTITLE4=THE EXTRA MILE
TTITLE5=BELIEVE
TTITLE6=A GOOD MAN
TTITLE7=EVERYDAY WOMAN
TTITLE8=I LOVE THIS ROAD
TTITLE9=THAT KIND OF BEAUTIFUL
TTITLE10=WHEN I SEE YOU AGAIN
TTITLE11=SLEEP IT OFF
TTITLE12=LET YOUR LOVE SPEAK
TTITLE13=NOVEMBER
TTITLE14=BELONGS TO YOU
TTITLE15=LAST ONE STANDING
EXTD=
EXTT0=
EXTT1=
EXTT2=
EXTT3=
EXTT4=
EXTT5=
EXTT6=
EXTT7=
EXTT8=
EXTT9=
EXTT10=
EXTT11=
EXTT12=
EXTT13=
EXTT14=
EXTT15=
PLAYORDER=
